<?xml version="1.0" standalone="no"?>
<!DOCTYPE svg PUBLIC "-//W3C//DTD SVG 20010904//EN"
 "http://www.w3.org/TR/2001/REC-SVG-20010904/DTD/svg10.dtd">
<svg version="1.0" xmlns="http://www.w3.org/2000/svg"
 width="800.000000pt" height="800.000000pt" viewBox="0 0 800.000000 800.000000"
 preserveAspectRatio="xMidYMid meet">
<metadata>
Created by potrace 1.11, written by Peter Selinger 2001-2013
</metadata>
<g transform="translate(0.000000,800.000000) scale(0.100000,-0.100000)"
fill="#000000" stroke="none">
<path d="M3808 7884 c-2 -1 -41 -5 -88 -8 -137 -10 -220 -21 -405 -51 -78 -13
-301 -66 -385 -91 -127 -39 -232 -73 -255 -83 -11 -5 -58 -24 -105 -41 -290
-111 -631 -301 -897 -500 -54 -41 -100 -76 -103 -79 -3 -3 -27 -24 -55 -46
-88 -70 -117 -97 -281 -260 -88 -88 -202 -211 -253 -274 -78 -97 -228 -301
-268 -367 -6 -10 -34 -55 -61 -99 -212 -341 -398 -805 -476 -1186 -9 -42 -18
-83 -20 -90 -3 -8 -8 -32 -11 -54 -3 -22 -10 -67 -15 -100 -5 -33 -12 -82 -16
-110 -3 -27 -8 -61 -10 -75 -10 -78 -18 -270 -18 -450 0 -204 4 -257 29 -490
2 -19 6 -42 9 -50 3 -8 7 -35 10 -60 5 -42 17 -109 30 -170 3 -14 7 -36 10
-50 16 -91 102 -389 141 -490 7 -19 28 -73 46 -120 129 -338 378 -758 624
-1055 98 -118 333 -361 435 -450 89 -77 316 -255 325 -255 3 0 15 -8 26 -18
10 -11 32 -25 47 -33 15 -8 29 -17 32 -21 3 -3 55 -37 115 -74 204 -125 496
-267 685 -333 36 -13 74 -27 85 -31 36 -15 269 -86 307 -94 48 -10 74 -16 98
-22 136 -32 268 -55 390 -69 30 -3 65 -8 77 -10 43 -10 230 -18 403 -18 295
-1 485 16 780 70 166 30 604 157 635 185 5 4 15 8 22 8 7 0 32 8 56 19 23 10
76 33 117 51 132 58 314 151 408 209 59 36 318 206 334 220 7 6 38 30 68 53
258 198 529 470 725 728 28 36 52 67 55 70 20 19 179 267 238 370 58 102 162
310 203 405 37 87 113 285 117 305 0 3 3 12 6 20 19 56 79 272 91 330 2 8 8
35 14 60 5 25 12 61 16 80 3 19 10 58 15 85 5 28 12 70 15 95 3 25 8 57 11 72
6 28 9 66 21 203 8 102 8 521 -1 605 -3 30 -8 82 -11 115 -8 83 -14 126 -30
225 -18 105 -20 114 -40 208 -11 51 -29 123 -50 197 -9 33 -18 67 -20 75 -4
17 -53 167 -62 190 -4 8 -7 17 -7 20 -1 5 -17 48 -36 95 -165 422 -432 860
-715 1175 -62 70 -304 311 -361 361 -84 73 -95 82 -204 165 -358 274 -741 476
-1175 619 -98 32 -225 69 -275 79 -14 3 -45 10 -70 16 -103 24 -226 46 -295
55 -22 3 -50 7 -63 10 -24 4 -119 14 -202 21 -54 5 -529 12 -532 8z"/>
</g>
</svg>
